<svg xmlns="http://www.w3.org/2000/svg" width="95.622" height="25.37" viewBox="0 0 95.622 25.37"><path d="M54.471 12.229c.229-.701.343-1.457.343-2.273 0-.814-.114-1.577-.343-2.285-.229-.706-.574-1.321-1.028-1.844-.459-.521-1.021-.933-1.686-1.233-.663-.299-1.44-.45-2.326-.45-.872 0-1.643.151-2.314.45-.672.3-1.237.712-1.695 1.233-.457.523-.8 1.138-1.028 1.844-.23.708-.344 1.471-.344 2.285 0 .816.114 1.572.344 2.273.228.7.571 1.313 1.028 1.834.458.523 1.023.931 1.695 1.222.672.292 1.442.441 2.314.441.886 0 1.663-.149 2.326-.441.664-.291 1.227-.699 1.686-1.222.453-.521.798-1.134 1.028-1.834m-1.858-.478c-.181.523-.426.96-.739 1.309-.316.352-.684.619-1.105.806-.42.187-.866.278-1.338.278-.47 0-.918-.091-1.338-.278-.421-.187-.789-.454-1.103-.806-.314-.349-.561-.786-.74-1.309-.179-.52-.267-1.116-.267-1.789 0-.671.088-1.267.267-1.789.18-.524.426-.962.74-1.319.313-.356.682-.628 1.103-.813.42-.187.868-.281 1.338-.281.472 0 .918.094 1.338.281.422.185.789.457 1.105.813.313.357.559.795.739 1.319.179.522.266 1.118.266 1.789 0 .674-.087 1.27-.266 1.789" fill="#1CADD7"/><path d="M25.831 5.891c-.423-.536-.953-.961-1.59-1.276-.638-.313-1.386-.471-2.246-.471-.775 0-1.483.139-2.128.418-.645.281-1.072.866-1.072.866-.191.263-.356.477-.367.477-.01 0-.017-.266-.017-.59v-.321c0-.326-.267-.592-.593-.592h-.64c-.324 0-.589.266-.589.592v14.154c0 .324.265.593.589.593h.64c.326 0 .593-.269.593-.593v-4.549c0-.326.007-.592.017-.592.011 0 .178.215.371.475 0 0 .096.132.39.352.294.223.606.398.935.527.329.128.664.221.999.279.337.056.642.086.913.086.849 0 1.588-.151 2.228-.451.637-.301 1.165-.713 1.59-1.234.423-.521.737-1.134.945-1.833.208-.702.311-1.443.311-2.231 0-.785-.107-1.528-.322-2.228-.215-.703-.533-1.321-.957-1.858m-.825 5.552c-.115.513-.299.972-.557 1.371-.258.401-.598.723-1.02.964-.424.246-.947.366-1.577.366-.631 0-1.167-.119-1.61-.353-.442-.237-.804-.548-1.082-.934-.279-.386-.484-.832-.613-1.339-.129-.508-.194-1.033-.194-1.576 0-.516.063-1.021.183-1.523.122-.499.319-.946.591-1.339.272-.394.624-.711 1.052-.957.427-.241.95-.363 1.566-.363.587 0 1.098.114 1.534.344.436.229.794.536 1.073.922.278.386.485.825.622 1.318.134.492.204.998.204 1.511 0 .544-.058 1.074-.172 1.588" fill="#1CADD7"/><path d="M56.402 15.501h.641c.326 0 .589-.268.589-.59v-14.152c0-.326-.263-.591-.589-.591h-.641c-.325 0-.59.265-.59.591v14.152c0 .323.265.59.59.59" fill="#1CADD7"/><path d="M39.002 6.02h.687c.327 0 .594.268.594.592v8.299c0 .323.263.591.59.591h.639c.325 0 .591-.268.591-.591v-8.299c0-.324.266-.592.59-.592h.966c.324 0 .59-.265.59-.59v-.435c0-.326-.266-.592-.59-.592h-.966c-.324 0-.59-.263-.59-.589v-.363c0-.325.039-.853.089-1.175 0 0 .033-.23.277-.401.246-.171.592-.258 1.034-.258.16 0 .331.01.518.032l.188.023c.181.052.33-.172.33-.496v-.412c0-.326-.164-.638-.37-.691l-.222-.029c-.223-.029-.418-.044-.591-.044-1.004 0-1.766.233-2.29.699-.523.466-.691 1.467-.691 1.467-.05.322-.092.852-.092 1.175v.473c0 .326-.267.589-.594.589h-.687c-.323 0-.59.266-.59.592v.435c0 .325.267.59.59.59" fill="#1CADD7"/><path d="M59.414 15.501h.64c.324 0 .59-.268.59-.59v-9.919c0-.325-.266-.59-.59-.59h-.64c-.327 0-.591.265-.591.59v9.919c0 .323.264.59.591.59" fill="#1CADD7"/><path d="M72.35 9.956c0-.814-.113-1.577-.342-2.285-.229-.706-.572-1.321-1.028-1.844-.458-.521-1.02-.933-1.685-1.233-.664-.299-1.44-.45-2.327-.45-.871 0-1.646.151-2.316.45-.671.3-1.235.712-1.693 1.233-.456.523-.801 1.138-1.028 1.844-.229.708-.344 1.471-.344 2.285 0 .816.115 1.572.344 2.273.228.7.572 1.313 1.028 1.834.458.525 1.022.931 1.693 1.222.671.292 1.445.441 2.316.441.887 0 1.663-.149 2.327-.441.665-.291 1.227-.697 1.685-1.222.456-.521.799-1.134 1.028-1.834.228-.701.342-1.458.342-2.273m-2.201 1.795c-.179.523-.424.96-.74 1.309-.312.352-.682.619-1.102.806-.422.187-.868.278-1.34.278-.47 0-.918-.091-1.337-.278-.422-.187-.789-.454-1.103-.806-.317-.349-.562-.786-.742-1.309-.179-.52-.265-1.116-.265-1.789 0-.671.086-1.267.265-1.789.18-.524.425-.962.742-1.319.313-.356.681-.628 1.103-.813.419-.187.867-.281 1.337-.281.472 0 .918.094 1.34.281.42.185.789.457 1.102.813.316.357.562.795.74 1.319.179.522.27 1.118.27 1.789 0 .674-.091 1.27-.27 1.789" fill="#1CADD7"/><path d="M38.614 9.977c0-.785-.109-1.528-.323-2.228-.215-.702-.533-1.321-.956-1.858-.423-.536-.953-.961-1.591-1.276-.639-.313-1.387-.471-2.248-.471-.773 0-1.482.139-2.128.418-.644.281-1.07.866-1.07.866-.192.263-.356.477-.367.477-.01 0-.016-.266-.016-.59v-.321c0-.326-.268-.592-.595-.592h-.637c-.325 0-.593.266-.593.592v14.154c0 .326.268.593.593.593h.637c.327 0 .595-.267.595-.593v-4.549c0-.326.006-.592.016-.592.011 0 .177.215.371.475 0 0 .096.132.39.352.294.223.605.398.936.527.328.128.661.221.998.279.338.056.642.086.913.086.846 0 1.588-.151 2.227-.451.638-.301 1.167-.713 1.592-1.234.42-.521.736-1.134.944-1.833.208-.703.312-1.443.312-2.231m-2.105 1.466c-.115.513-.3.972-.557 1.371-.259.401-.599.723-1.02.964-.422.246-.949.366-1.577.366-.629 0-1.166-.119-1.61-.353-.443-.237-.804-.548-1.082-.934-.279-.386-.483-.832-.614-1.339-.128-.508-.191-1.033-.191-1.576 0-.516.061-1.021.182-1.523.121-.499.319-.946.59-1.339.271-.394.621-.711 1.051-.957.429-.241.951-.363 1.567-.363.585 0 1.098.114 1.532.344.438.229.795.536 1.074.922.277.386.485.825.62 1.318.138.492.207.998.207 1.511 0 .544-.058 1.074-.172 1.588" fill="#1CADD7"/><path d="M10.625 9.462c-.268.078-.504.134-.709.165-.632.112-1.28.21-1.95.295-.67.088-1.281.218-1.832.391-.551.173-1.004.423-1.358.745-.354.323-.532.785-.532 1.385 0 .378.075.713.225 1.005.15.292.349.545.602.758.251.209.542.371.874.483.331.11.67.166 1.016.166.568 0 1.111-.086 1.631-.26.518-.174.973-.427 1.359-.758s.694-.733.921-1.207c.229-.471.343-1.008.343-1.608v-1.94h-.046c-.094.175-.276.299-.544.38" fill="#1CADD7"/><path d="M7.643 1.995c-4.221 0-7.643 3.421-7.643 7.642s3.422 7.643 7.643 7.643 7.644-3.422 7.644-7.643-3.423-7.642-7.644-7.642m4.559 10.542c-.736 1.969-2.223 2.535-2.758 2.766-.868.369-2.017.283-2.44.283-.978 0-2.311-.473-2.894-.934.01.009-2.277-1.637-.656-3.629.386-.474.878-.846 1.501-1.101.623-.251 1.323-.427 2.103-.53.781-.101 1.573-.202 2.377-.294.314-.034.591-.073.827-.12.238-.048.433-.13.592-.248.157-.119.279-.279.366-.484.086-.207.131-.475.131-.805 0-.505-.083-.919-.249-1.242-.166-.325-.394-.58-.685-.769-.292-.19-.63-.321-1.015-.391-.387-.071-.8-.106-1.241-.106-.942 0-1.74.162-2.314.644-.892.747-1.066 1.785-1.066 1.785-.11.351-.304.532-.651.51-.659-.043-.689-.583-.689-.583.017-.18.041-.559.45-1.374.259-.515.584-.935 1.017-1.266.434-.33.922-.576 1.504-.734.583-.156 1.23-.235 1.938-.235.537 0 .64.051 1.177.154.535.1 1.015.293 1.442.578.424.284.772.683 1.039 1.194.269.512.357.867.403 2 0 0 .014.369-.025 2.064l-.004.15c.03.214-.057 2.388-.18 2.717" fill="#1CADD7"/><path d="M34.95 17.748h-2.584v5.896h.784v-2.412h1.8c.595.006 1.045-.146 1.35-.455.306-.308.459-.736.459-1.287 0-.55-.153-.978-.459-1.283-.305-.306-.755-.459-1.35-.459m.714 2.55c-.206.188-.532.279-.978.273h-1.536v-2.161h1.536c.446 0 .772.092.978.275.207.186.31.452.31.805s-.103.621-.31.808" fill="#1CADD7"/><path d="M39.657 19.275c-.38-.01-.693.066-.941.23-.248.166-.457.422-.627.77h-.017v-.9h-.66v4.27h.701v-1.899c0-.274.028-.519.083-.731.055-.211.143-.392.264-.541.121-.148.281-.262.479-.338.198-.078.437-.117.718-.117v-.744z" fill="#1CADD7"/><path d="M43.256 19.923c-.176-.201-.392-.358-.648-.474-.256-.118-.554-.174-.895-.174-.337 0-.634.056-.892.173-.26.115-.476.273-.653.475-.176.201-.308.438-.396.711-.088.272-.133.565-.133.877 0 .315.045.607.133.877.088.271.22.506.396.705.177.203.393.358.653.472.258.112.555.169.892.169.341 0 .639-.057.895-.168.256-.114.472-.27.648-.473.177-.199.309-.435.397-.705.088-.27.132-.562.132-.877 0-.312-.044-.604-.132-.877-.088-.273-.219-.509-.397-.711m-.317 2.279c-.07.202-.164.37-.285.505-.122.135-.264.238-.425.31-.163.071-.335.106-.516.106-.183 0-.355-.035-.517-.106-.161-.071-.304-.175-.425-.31s-.216-.303-.285-.505c-.069-.2-.103-.431-.103-.69 0-.256.034-.487.103-.688.069-.201.164-.371.285-.508s.264-.242.425-.314c.162-.07.334-.106.517-.106.181 0 .353.036.516.106.161.072.303.178.425.314.121.137.215.307.285.508.068.2.103.432.103.688 0 .259-.034.489-.103.69" fill="#1CADD7"/><path d="M48.027 19.949c-.164-.207-.367-.371-.612-.492s-.533-.182-.863-.182c-.297 0-.57.053-.818.161-.247.107-.429.28-.545.517h-.016v-.578h-.702v5.896h.702v-2.197h.016c.077.127.173.232.285.318.114.085.233.152.36.201.127.051.254.086.384.107l.352.033c.323 0 .608-.058.854-.173.245-.116.449-.274.612-.475.161-.201.281-.437.362-.706.079-.27.119-.555.119-.859 0-.302-.041-.588-.123-.859-.084-.268-.206-.507-.367-.712m-.319 2.133c-.044.199-.115.375-.215.529s-.23.278-.393.371c-.163.094-.363.141-.606.141-.242 0-.449-.045-.62-.135-.17-.092-.309-.211-.416-.36-.108-.147-.186-.32-.236-.515-.049-.196-.074-.399-.074-.608 0-.198.024-.394.07-.586.047-.192.123-.364.228-.515.104-.153.239-.275.405-.369.165-.094.365-.141.602-.141.225 0 .422.045.59.133.169.088.306.205.413.354s.187.317.239.508.078.384.078.582c0 .21-.021.414-.065.611" fill="#1CADD7"/><path d="M52.814 20.902c-.057-.285-.162-.551-.313-.793s-.354-.441-.603-.599c-.251-.157-.565-.235-.945-.235-.291 0-.561.056-.805.166-.246.11-.458.264-.636.461-.179.199-.319.433-.417.701-.099.271-.149.568-.149.894.012.325.06.625.145.901.085.274.214.512.383.709.172.198.383.353.633.463.251.109.545.164.889.164.482 0 .886-.121 1.205-.362.318-.243.524-.604.618-1.083h-.692c-.062.281-.188.49-.376.628-.19.139-.434.207-.73.207-.231 0-.433-.039-.603-.116-.171-.077-.312-.18-.422-.309-.11-.131-.189-.279-.239-.446-.049-.169-.072-.347-.066-.533h3.195c.01-.26-.013-.531-.072-.818m-3.125.197c.012-.164.046-.32.108-.466.06-.146.142-.272.247-.384.104-.109.229-.196.376-.26.145-.062.309-.096.491-.096.176 0 .337.033.482.096.146.063.273.149.38.256.107.107.192.236.257.384.062.147.1.306.111.47h-2.452z" fill="#1CADD7"/><path d="M57.005 18.094h-.701v1.28h-.636v-.1c-.379-.01-.694.066-.941.231-.249.166-.458.421-.628.769h-.016v-.9h-.661v4.27h.702v-1.899c0-.275.027-.519.082-.731.055-.212.144-.392.265-.541.121-.148.281-.262.479-.338.198-.078.437-.117.718-.117v-.023h.636v2.717c0 .198.02.357.058.479s.098.215.177.28c.08.065.186.112.314.138.13.024.285.037.467.037h.537v-.619h-.322l-.269-.014-.161-.053-.079-.115-.021-.199v-2.65h.852v-.619h-.852v-1.283z" fill="#1CADD7"/><path d="M60.061 22.867h-.017l-1.247-3.492h-.792l1.692 4.244-.289.719c-.066.125-.144.223-.23.289-.089.064-.204.098-.348.098l-.211-.033-.202-.064v.645l.24.057.247.017c.16 0 .297-.021.413-.062.115-.041.222-.107.316-.198.098-.093.187-.208.266-.351.08-.144.161-.319.244-.528l1.857-4.831h-.744l-1.195 3.49z" fill="#1CADD7"/><polygon points="67.625,22.703 65.766,17.749 64.693,17.749 64.693,23.644 65.436,23.644 65.436,18.74 65.453,18.74 67.294,23.644 67.963,23.644 69.804,18.74 69.821,18.74 69.821,23.644 70.564,23.644 70.564,17.749 69.49,17.749" fill="#1CADD7"/><path d="M74.961 23.007c-.02-.077-.029-.198-.029-.362v-2.197c0-.247-.047-.448-.139-.602-.095-.154-.219-.275-.373-.36-.154-.086-.325-.143-.516-.17s-.382-.04-.574-.04c-.236 0-.462.024-.677.073-.216.05-.405.132-.569.244-.165.113-.297.26-.396.441s-.154.406-.166.668h.701c.018-.313.124-.525.323-.639.198-.113.446-.169.743-.169l.334.024c.113.017.215.049.306.099.09.05.166.122.224.215.058.095.087.218.087.372 0 .132-.039.232-.116.302-.077.068-.182.12-.313.156-.133.036-.285.063-.459.083l-.55.086c-.181.033-.359.074-.532.124s-.327.122-.462.218c-.135.098-.244.223-.326.377-.083.154-.125.353-.125.596 0 .213.037.396.112.547.074.152.176.275.306.373.13.097.279.164.449.207.171.041.354.061.546.061.297 0 .574-.051.829-.152.257-.102.481-.268.674-.5 0 .232.055.398.16.5.108.102.252.152.435.152.215 0 .383-.035.504-.105v-.547l-.214.041c-.113 0-.179-.04-.197-.116m-.732-.85c0 .099-.023.205-.072.317-.052.113-.129.219-.232.314-.104.098-.24.176-.405.24-.164.062-.362.094-.595.094l-.309-.031c-.103-.023-.19-.06-.265-.108-.073-.049-.135-.114-.182-.194s-.069-.178-.069-.293c0-.176.039-.315.119-.416.08-.104.183-.181.31-.236.127-.055.27-.096.43-.12l.474-.066.451-.073c.142-.03.258-.078.346-.146v.718z" fill="#1CADD7"/><path d="M79.081 19.711c-.116-.137-.269-.243-.455-.321-.188-.076-.422-.114-.702-.114-.634 0-1.097.258-1.389.776h-.018v-.678h-.661v4.27h.702v-2.412c0-.192.027-.369.08-.532.051-.163.131-.304.235-.425s.234-.215.393-.281c.157-.066.342-.1.559-.1.269 0 .48.076.635.232.155.154.231.362.231.627v2.891h.702v-2.809c0-.23-.022-.441-.068-.631-.048-.189-.13-.353-.244-.493" fill="#1CADD7"/><path d="M83.662 23.007c-.021-.077-.03-.198-.03-.362v-2.197c0-.247-.046-.448-.139-.602-.096-.154-.219-.275-.372-.359-.155-.087-.327-.144-.518-.171-.189-.027-.382-.04-.574-.04-.236 0-.462.024-.677.073-.215.05-.405.132-.57.244-.165.113-.298.26-.396.441s-.154.406-.165.668h.702c.017-.313.124-.525.322-.639.199-.113.445-.169.743-.169l.335.024s.215.049.306.1c.091.049.165.121.223.214.058.095.086.218.086.372 0 .132-.038.232-.114.302-.077.068-.182.12-.314.156-.132.036-.285.063-.458.083-.174.02-.358.049-.55.086-.182.033-.36.074-.533.124s-.328.122-.463.218c-.134.098-.244.223-.326.377-.083.154-.123.353-.123.596 0 .213.037.396.111.547.074.152.175.275.305.373.13.097.28.164.451.207.171.041.352.061.545.061.298 0 .573-.051.83-.152.256-.102.481-.268.673-.498 0 .23.054.396.162.498.107.102.252.152.433.152.216 0 .384-.035.506-.105v-.545l-.216.039c-.112 0-.177-.04-.195-.116m-.732-.85c0 .099-.024.205-.075.317-.049.113-.125.219-.23.316-.104.096-.239.174-.405.238-.164.062-.363.094-.594.094l-.311-.031c-.102-.023-.189-.06-.263-.108-.075-.049-.137-.114-.182-.192-.048-.082-.071-.179-.071-.295 0-.176.04-.315.12-.416.079-.104.182-.181.308-.236.127-.055.271-.096.432-.12l.475-.065.45-.074c.143-.03.259-.078.347-.146v.718z" fill="#1CADD7"/><path d="M87.579 19.986h-.008c-.127-.238-.303-.415-.528-.533-.227-.117-.474-.177-.743-.177-.369 0-.681.069-.935.211-.253.14-.456.317-.609.536-.154.218-.265.459-.33.727-.066.266-.101.527-.101.78 0 .292.041.569.12.83.08.261.199.489.359.685s.357.351.595.467c.237.117.515.174.833.174.277 0 .536-.062.781-.186s.428-.32.549-.582h.017v.28c0 .236-.022.453-.07.651-.046.199-.122.367-.227.509-.104.14-.236.25-.396.329-.16.081-.355.122-.586.122-.116 0-.238-.015-.363-.039-.127-.024-.244-.065-.351-.119-.108-.056-.198-.127-.272-.215-.075-.087-.115-.195-.121-.322h-.701c.011.231.072.427.182.587.109.159.249.289.418.389.167.099.354.17.561.213.207.045.409.067.606.067.683 0 1.184-.174 1.503-.521.318-.346.479-.87.479-1.569v-3.905h-.66v.611zm-.102 2.031c-.048.197-.119.375-.219.531-.1.158-.23.285-.393.381-.162.097-.358.145-.59.145-.232 0-.425-.048-.579-.145-.153-.096-.277-.223-.372-.381-.093-.156-.158-.332-.197-.523-.038-.193-.059-.385-.059-.578 0-.203.025-.398.071-.586.047-.188.12-.354.222-.496.103-.143.233-.257.394-.342.159-.086.353-.128.578-.128.22 0 .406.044.561.132s.28.205.376.352c.096.146.167.309.211.49.043.182.066.366.066.553 0 .199-.024.396-.07.595" fill="#1CADD7"/><path d="M92.769 20.902c-.057-.285-.162-.551-.314-.793-.149-.242-.352-.441-.602-.598-.251-.158-.566-.236-.946-.236-.291 0-.56.056-.805.166s-.457.264-.635.461c-.181.198-.319.433-.417.703-.101.27-.15.566-.15.892.012.325.061.625.146.901.085.274.214.512.384.709.171.198.382.353.632.463.25.109.546.164.888.164.484 0 .886-.121 1.205-.362.32-.243.525-.604.619-1.083h-.693c-.061.281-.187.49-.376.628-.189.139-.433.207-.729.207-.232 0-.433-.039-.604-.116-.171-.077-.31-.18-.42-.309-.109-.131-.189-.279-.24-.446-.05-.169-.071-.347-.065-.533h3.195c.009-.26-.016-.531-.073-.818m-3.125.198c.011-.165.046-.321.108-.467.059-.146.142-.272.247-.384.104-.109.229-.196.376-.26.145-.062.309-.096.49-.096.178 0 .337.033.483.096.146.063.272.149.38.256.107.107.192.236.256.384.063.149.101.306.112.471h-2.452z" fill="#1CADD7"/><path d="M94.681 19.505c-.248.166-.457.422-.628.77h-.016v-.9h-.662v4.27h.703v-1.898c0-.275.026-.52.082-.732.056-.212.144-.391.264-.541.121-.148.28-.262.479-.338.199-.077.439-.115.72-.115v-.743c-.381-.014-.694.063-.942.227" fill="#1CADD7"/><polygon points="72.354,6.176 72.623,6.176 72.623,4.381 73.298,4.381 73.298,4.154 71.681,4.154 71.681,4.381 72.354,4.381" fill="#1CADD7"/><polygon points="74.533,5.854 73.896,4.155 73.527,4.155 73.527,6.177 73.781,6.177 73.781,4.495 73.788,4.495 74.42,6.177 74.649,6.177 75.28,4.495 75.287,4.495 75.287,6.177 75.543,6.177 75.543,4.155 75.174,4.155" fill="#1CADD7"/></svg>