<?xml version="1.0" encoding="iso-8859-1"?>
<!-- Generator: Adobe Illustrator 16.0.4, SVG Export Plug-In . SVG Version: 6.00 Build 0)  -->
<!DOCTYPE svg PUBLIC "-//W3C//DTD SVG 1.1//EN" "http://www.w3.org/Graphics/SVG/1.1/DTD/svg11.dtd">
<svg version="1.1" id="Layer_1" xmlns="http://www.w3.org/2000/svg" xmlns:xlink="http://www.w3.org/1999/xlink" x="0px" y="0px"
	 width="95.622px" height="25.37px" viewBox="0 0 95.622 25.37" style="enable-background:new 0 0 95.622 25.37;"
	 xml:space="preserve">
<path style="fill:#1CADD7;" d="M54.471,12.229c0.229-0.701,0.343-1.457,0.343-2.273c0-0.814-0.114-1.577-0.343-2.285
	c-0.229-0.706-0.574-1.321-1.028-1.844c-0.459-0.521-1.021-0.933-1.686-1.233c-0.663-0.299-1.44-0.45-2.326-0.45
	c-0.872,0-1.643,0.151-2.314,0.45c-0.672,0.3-1.237,0.712-1.695,1.233c-0.457,0.523-0.8,1.138-1.028,1.844
	c-0.23,0.708-0.344,1.471-0.344,2.285c0,0.816,0.114,1.572,0.344,2.273c0.228,0.7,0.571,1.313,1.028,1.834
	c0.458,0.523,1.023,0.931,1.695,1.222c0.672,0.292,1.442,0.441,2.314,0.441c0.886,0,1.663-0.149,2.326-0.441
	c0.664-0.291,1.227-0.699,1.686-1.222C53.896,13.542,54.241,12.929,54.471,12.229 M52.613,11.751
	c-0.181,0.523-0.426,0.96-0.739,1.309c-0.316,0.352-0.684,0.619-1.105,0.806c-0.42,0.187-0.866,0.278-1.338,0.278
	c-0.47,0-0.918-0.091-1.338-0.278c-0.421-0.187-0.789-0.454-1.103-0.806c-0.314-0.349-0.561-0.786-0.74-1.309
	c-0.179-0.52-0.267-1.116-0.267-1.789c0-0.671,0.088-1.267,0.267-1.789c0.18-0.524,0.426-0.962,0.74-1.319
	c0.313-0.356,0.682-0.628,1.103-0.813c0.42-0.187,0.868-0.281,1.338-0.281c0.472,0,0.918,0.094,1.338,0.281
	c0.422,0.185,0.789,0.457,1.105,0.813c0.313,0.357,0.559,0.795,0.739,1.319c0.179,0.522,0.266,1.118,0.266,1.789
	C52.879,10.636,52.792,11.232,52.613,11.751"/>
<path style="fill:#1CADD7;" d="M25.831,5.891c-0.423-0.536-0.953-0.961-1.59-1.276c-0.638-0.313-1.386-0.471-2.246-0.471
	c-0.775,0-1.483,0.139-2.128,0.418c-0.645,0.281-1.072,0.866-1.072,0.866c-0.191,0.263-0.356,0.477-0.367,0.477
	c-0.01,0-0.017-0.266-0.017-0.59V4.994c0-0.326-0.267-0.592-0.593-0.592h-0.64c-0.324,0-0.589,0.266-0.589,0.592v14.154
	c0,0.324,0.265,0.593,0.589,0.593h0.64c0.326,0,0.593-0.269,0.593-0.593v-4.549c0-0.326,0.007-0.592,0.017-0.592
	c0.011,0,0.178,0.215,0.371,0.475c0,0,0.096,0.132,0.39,0.352c0.294,0.223,0.606,0.398,0.935,0.527
	c0.329,0.128,0.664,0.221,0.999,0.279c0.337,0.056,0.642,0.086,0.913,0.086c0.849,0,1.588-0.151,2.228-0.451
	c0.637-0.301,1.165-0.713,1.59-1.234c0.423-0.521,0.737-1.134,0.945-1.833c0.208-0.702,0.311-1.443,0.311-2.231
	c0-0.785-0.107-1.528-0.322-2.228C26.573,7.046,26.255,6.428,25.831,5.891 M25.006,11.443c-0.115,0.513-0.299,0.972-0.557,1.371
	c-0.258,0.401-0.598,0.723-1.02,0.964c-0.424,0.246-0.947,0.366-1.577,0.366c-0.631,0-1.167-0.119-1.61-0.353
	c-0.442-0.237-0.804-0.548-1.082-0.934c-0.279-0.386-0.484-0.832-0.613-1.339c-0.129-0.508-0.194-1.033-0.194-1.576
	c0-0.516,0.063-1.021,0.183-1.523c0.122-0.499,0.319-0.946,0.591-1.339c0.272-0.394,0.624-0.711,1.052-0.957
	c0.427-0.241,0.95-0.363,1.566-0.363c0.587,0,1.098,0.114,1.534,0.344c0.436,0.229,0.794,0.536,1.073,0.922
	c0.278,0.386,0.485,0.825,0.622,1.318c0.134,0.492,0.204,0.998,0.204,1.511C25.178,10.399,25.12,10.929,25.006,11.443"/>
<path style="fill:#1CADD7;" d="M56.402,15.501h0.641c0.326,0,0.589-0.268,0.589-0.59V0.759c0-0.326-0.263-0.591-0.589-0.591h-0.641
	c-0.325,0-0.59,0.265-0.59,0.591v14.152C55.812,15.234,56.077,15.501,56.402,15.501"/>
<path style="fill:#1CADD7;" d="M39.002,6.02h0.687c0.327,0,0.594,0.268,0.594,0.592v8.299c0,0.323,0.263,0.591,0.59,0.591h0.639
	c0.325,0,0.591-0.268,0.591-0.591V6.612c0-0.324,0.266-0.592,0.59-0.592h0.966c0.324,0,0.59-0.265,0.59-0.59V4.995
	c0-0.326-0.266-0.592-0.59-0.592h-0.966c-0.324,0-0.59-0.263-0.59-0.589V3.451c0-0.325,0.039-0.853,0.089-1.175
	c0,0,0.033-0.23,0.277-0.401c0.246-0.171,0.592-0.258,1.034-0.258c0.16,0,0.331,0.01,0.518,0.032l0.188,0.023
	c0.181,0.052,0.33-0.172,0.33-0.496V0.764c0-0.326-0.164-0.638-0.37-0.691l-0.222-0.029C43.724,0.015,43.529,0,43.356,0
	c-1.004,0-1.766,0.233-2.29,0.699c-0.523,0.466-0.691,1.467-0.691,1.467c-0.05,0.322-0.092,0.852-0.092,1.175v0.473
	c0,0.326-0.267,0.589-0.594,0.589h-0.687c-0.323,0-0.59,0.266-0.59,0.592V5.43C38.412,5.755,38.679,6.02,39.002,6.02"/>
<path style="fill:#1CADD7;" d="M59.414,15.501h0.64c0.324,0,0.59-0.268,0.59-0.59V4.992c0-0.325-0.266-0.59-0.59-0.59h-0.64
	c-0.327,0-0.591,0.265-0.591,0.59v9.919C58.823,15.234,59.087,15.501,59.414,15.501"/>
<path style="fill:#1CADD7;" d="M72.35,9.956c0-0.814-0.113-1.577-0.342-2.285c-0.229-0.706-0.572-1.321-1.028-1.844
	c-0.458-0.521-1.02-0.933-1.685-1.233c-0.664-0.299-1.44-0.45-2.327-0.45c-0.871,0-1.646,0.151-2.316,0.45
	c-0.671,0.3-1.235,0.712-1.693,1.233c-0.456,0.523-0.801,1.138-1.028,1.844c-0.229,0.708-0.344,1.471-0.344,2.285
	c0,0.816,0.115,1.572,0.344,2.273c0.228,0.7,0.572,1.313,1.028,1.834c0.458,0.525,1.022,0.931,1.693,1.222
	c0.671,0.292,1.445,0.441,2.316,0.441c0.887,0,1.663-0.149,2.327-0.441c0.665-0.291,1.227-0.697,1.685-1.222
	c0.456-0.521,0.799-1.134,1.028-1.834C72.236,11.528,72.35,10.771,72.35,9.956 M70.149,11.751c-0.179,0.523-0.424,0.96-0.74,1.309
	c-0.312,0.352-0.682,0.619-1.102,0.806c-0.422,0.187-0.868,0.278-1.34,0.278c-0.47,0-0.918-0.091-1.337-0.278
	c-0.422-0.187-0.789-0.454-1.103-0.806c-0.317-0.349-0.562-0.786-0.742-1.309c-0.179-0.52-0.265-1.116-0.265-1.789
	c0-0.671,0.086-1.267,0.265-1.789c0.18-0.524,0.425-0.962,0.742-1.319c0.313-0.356,0.681-0.628,1.103-0.813
	c0.419-0.187,0.867-0.281,1.337-0.281c0.472,0,0.918,0.094,1.34,0.281c0.42,0.185,0.789,0.457,1.102,0.813
	c0.316,0.357,0.562,0.795,0.74,1.319c0.179,0.522,0.27,1.118,0.27,1.789C70.419,10.636,70.328,11.232,70.149,11.751"/>
<path style="fill:#1CADD7;" d="M38.614,9.977c0-0.785-0.109-1.528-0.323-2.228c-0.215-0.702-0.533-1.321-0.956-1.858
	c-0.423-0.536-0.953-0.961-1.591-1.276c-0.639-0.313-1.387-0.471-2.248-0.471c-0.773,0-1.482,0.139-2.128,0.418
	c-0.644,0.281-1.07,0.866-1.07,0.866c-0.192,0.263-0.356,0.477-0.367,0.477c-0.01,0-0.016-0.266-0.016-0.59V4.994
	c0-0.326-0.268-0.592-0.595-0.592h-0.637c-0.325,0-0.593,0.266-0.593,0.592v14.154c0,0.326,0.268,0.593,0.593,0.593h0.637
	c0.327,0,0.595-0.267,0.595-0.593v-4.549c0-0.326,0.006-0.592,0.016-0.592c0.011,0,0.177,0.215,0.371,0.475
	c0,0,0.096,0.132,0.39,0.352c0.294,0.223,0.605,0.398,0.936,0.527c0.328,0.128,0.661,0.221,0.998,0.279
	c0.338,0.056,0.642,0.086,0.913,0.086c0.846,0,1.588-0.151,2.227-0.451c0.638-0.301,1.167-0.713,1.592-1.234
	c0.42-0.521,0.736-1.134,0.944-1.833C38.51,11.505,38.614,10.765,38.614,9.977 M36.509,11.443c-0.115,0.513-0.3,0.972-0.557,1.371
	c-0.259,0.401-0.599,0.723-1.02,0.964c-0.422,0.246-0.949,0.366-1.577,0.366c-0.629,0-1.166-0.119-1.61-0.353
	c-0.443-0.237-0.804-0.548-1.082-0.934c-0.279-0.386-0.483-0.832-0.614-1.339c-0.128-0.508-0.191-1.033-0.191-1.576
	c0-0.516,0.061-1.021,0.182-1.523c0.121-0.499,0.319-0.946,0.59-1.339c0.271-0.394,0.621-0.711,1.051-0.957
	c0.429-0.241,0.951-0.363,1.567-0.363c0.585,0,1.098,0.114,1.532,0.344c0.438,0.229,0.795,0.536,1.074,0.922
	c0.277,0.386,0.485,0.825,0.62,1.318c0.138,0.492,0.207,0.998,0.207,1.511C36.681,10.399,36.623,10.929,36.509,11.443"/>
<path style="fill:#1CADD7;" d="M10.625,9.462c-0.268,0.078-0.504,0.134-0.709,0.165c-0.632,0.112-1.28,0.21-1.95,0.295
	c-0.67,0.088-1.281,0.218-1.832,0.391c-0.551,0.173-1.004,0.423-1.358,0.745c-0.354,0.323-0.532,0.785-0.532,1.385
	c0,0.378,0.075,0.713,0.225,1.005c0.15,0.292,0.349,0.545,0.602,0.758c0.251,0.209,0.542,0.371,0.874,0.483
	c0.331,0.11,0.67,0.166,1.016,0.166c0.568,0,1.111-0.086,1.631-0.26c0.518-0.174,0.973-0.427,1.359-0.758
	c0.386-0.331,0.694-0.733,0.921-1.207c0.229-0.471,0.343-1.008,0.343-1.608V9.082h-0.046C11.075,9.257,10.893,9.381,10.625,9.462"/>
<path style="fill:#1CADD7;" d="M7.643,1.995C3.422,1.995,0,5.416,0,9.637c0,4.221,3.422,7.643,7.643,7.643s7.644-3.422,7.644-7.643
	C15.287,5.416,11.864,1.995,7.643,1.995 M12.202,12.537c-0.736,1.969-2.223,2.535-2.758,2.766c-0.868,0.369-2.017,0.283-2.44,0.283
	c-0.978,0-2.311-0.473-2.894-0.934c0.01,0.009-2.277-1.637-0.656-3.629c0.386-0.474,0.878-0.846,1.501-1.101
	c0.623-0.251,1.323-0.427,2.103-0.53C7.839,9.291,8.631,9.19,9.435,9.098c0.314-0.034,0.591-0.073,0.827-0.12
	c0.238-0.048,0.433-0.13,0.592-0.248c0.157-0.119,0.279-0.279,0.366-0.484c0.086-0.207,0.131-0.475,0.131-0.805
	c0-0.505-0.083-0.919-0.249-1.242c-0.166-0.325-0.394-0.58-0.685-0.769c-0.292-0.19-0.63-0.321-1.015-0.391
	c-0.387-0.071-0.8-0.106-1.241-0.106c-0.942,0-1.74,0.162-2.314,0.644C4.955,6.324,4.781,7.362,4.781,7.362
	c-0.11,0.351-0.304,0.532-0.651,0.51C3.471,7.829,3.441,7.289,3.441,7.289c0.017-0.18,0.041-0.559,0.45-1.374
	C4.15,5.4,4.475,4.98,4.908,4.649c0.434-0.33,0.922-0.576,1.504-0.734C6.995,3.759,7.642,3.68,8.35,3.68
	c0.537,0,0.64,0.051,1.177,0.154c0.535,0.1,1.015,0.293,1.442,0.578c0.424,0.284,0.772,0.683,1.039,1.194
	c0.269,0.512,0.357,0.867,0.403,2c0,0,0.014,0.369-0.025,2.064l-0.004,0.15C12.412,10.034,12.325,12.208,12.202,12.537"/>
<path style="fill:#1CADD7;" d="M34.95,17.748h-2.584v5.896h0.784v-2.412h1.8c0.595,0.006,1.045-0.146,1.35-0.455
	c0.306-0.308,0.459-0.736,0.459-1.287c0-0.55-0.153-0.978-0.459-1.283C35.995,17.901,35.545,17.748,34.95,17.748 M35.664,20.298
	c-0.206,0.188-0.532,0.279-0.978,0.273H33.15V18.41h1.536c0.446,0,0.772,0.092,0.978,0.275c0.207,0.186,0.31,0.452,0.31,0.805
	S35.871,20.111,35.664,20.298"/>
<path style="fill:#1CADD7;" d="M39.657,19.275c-0.38-0.01-0.693,0.066-0.941,0.23c-0.248,0.166-0.457,0.422-0.627,0.77h-0.017v-0.9
	h-0.66v4.27h0.701v-1.899c0-0.274,0.028-0.519,0.083-0.731c0.055-0.211,0.143-0.392,0.264-0.541
	c0.121-0.148,0.281-0.262,0.479-0.338c0.198-0.078,0.437-0.117,0.718-0.117V19.275z"/>
<path style="fill:#1CADD7;" d="M43.256,19.923c-0.176-0.201-0.392-0.358-0.648-0.474c-0.256-0.118-0.554-0.174-0.895-0.174
	c-0.337,0-0.634,0.056-0.892,0.173c-0.26,0.115-0.476,0.273-0.653,0.475c-0.176,0.201-0.308,0.438-0.396,0.711
	c-0.088,0.272-0.133,0.565-0.133,0.877c0,0.315,0.045,0.607,0.133,0.877c0.088,0.271,0.22,0.506,0.396,0.705
	c0.177,0.203,0.393,0.358,0.653,0.472c0.258,0.112,0.555,0.169,0.892,0.169c0.341,0,0.639-0.057,0.895-0.168
	c0.256-0.114,0.472-0.27,0.648-0.473c0.177-0.199,0.309-0.435,0.397-0.705c0.088-0.27,0.132-0.562,0.132-0.877
	c0-0.312-0.044-0.604-0.132-0.877C43.565,20.361,43.434,20.125,43.256,19.923 M42.939,22.202c-0.07,0.202-0.164,0.37-0.285,0.505
	c-0.122,0.135-0.264,0.238-0.425,0.31c-0.163,0.071-0.335,0.106-0.516,0.106c-0.183,0-0.355-0.035-0.517-0.106
	c-0.161-0.071-0.304-0.175-0.425-0.31s-0.216-0.303-0.285-0.505c-0.069-0.2-0.103-0.431-0.103-0.69c0-0.256,0.034-0.487,0.103-0.688
	c0.069-0.201,0.164-0.371,0.285-0.508s0.264-0.242,0.425-0.314c0.162-0.07,0.334-0.106,0.517-0.106c0.181,0,0.353,0.036,0.516,0.106
	c0.161,0.072,0.303,0.178,0.425,0.314c0.121,0.137,0.215,0.307,0.285,0.508c0.068,0.2,0.103,0.432,0.103,0.688
	C43.042,21.771,43.008,22.001,42.939,22.202"/>
<path style="fill:#1CADD7;" d="M48.027,19.949c-0.164-0.207-0.367-0.371-0.612-0.492s-0.533-0.182-0.863-0.182
	c-0.297,0-0.57,0.053-0.818,0.161c-0.247,0.107-0.429,0.28-0.545,0.517h-0.016v-0.578h-0.702v5.896h0.702v-2.197h0.016
	c0.077,0.127,0.173,0.232,0.285,0.318c0.114,0.085,0.233,0.152,0.36,0.201c0.127,0.051,0.254,0.086,0.384,0.107
	c0.129,0.021,0.246,0.033,0.352,0.033c0.323,0,0.608-0.058,0.854-0.173c0.245-0.116,0.449-0.274,0.612-0.475
	c0.161-0.201,0.281-0.437,0.362-0.706c0.079-0.27,0.119-0.555,0.119-0.859c0-0.302-0.041-0.588-0.123-0.859
	C48.31,20.393,48.188,20.154,48.027,19.949 M47.708,22.082c-0.044,0.199-0.115,0.375-0.215,0.529s-0.23,0.278-0.393,0.371
	c-0.163,0.094-0.363,0.141-0.606,0.141c-0.242,0-0.449-0.045-0.62-0.135c-0.17-0.092-0.309-0.211-0.416-0.36
	c-0.108-0.147-0.186-0.32-0.236-0.515c-0.049-0.196-0.074-0.399-0.074-0.608c0-0.198,0.024-0.394,0.07-0.586
	c0.047-0.192,0.123-0.364,0.228-0.515c0.104-0.153,0.239-0.275,0.405-0.369c0.165-0.094,0.365-0.141,0.602-0.141
	c0.225,0,0.422,0.045,0.59,0.133c0.169,0.088,0.306,0.205,0.413,0.354s0.187,0.317,0.239,0.508s0.078,0.384,0.078,0.582
	C47.773,21.681,47.752,21.885,47.708,22.082"/>
<path style="fill:#1CADD7;" d="M52.814,20.902c-0.057-0.285-0.162-0.551-0.313-0.793s-0.354-0.441-0.603-0.599
	c-0.251-0.157-0.565-0.235-0.945-0.235c-0.291,0-0.561,0.056-0.805,0.166c-0.246,0.11-0.458,0.264-0.636,0.461
	c-0.179,0.199-0.319,0.433-0.417,0.701c-0.099,0.271-0.149,0.568-0.149,0.894c0.012,0.325,0.06,0.625,0.145,0.901
	c0.085,0.274,0.214,0.512,0.383,0.709c0.172,0.198,0.383,0.353,0.633,0.463c0.251,0.109,0.545,0.164,0.889,0.164
	c0.482,0,0.886-0.121,1.205-0.362c0.318-0.243,0.524-0.604,0.618-1.083h-0.692c-0.062,0.281-0.188,0.49-0.376,0.628
	c-0.19,0.139-0.434,0.207-0.73,0.207c-0.231,0-0.433-0.039-0.603-0.116c-0.171-0.077-0.312-0.18-0.422-0.309
	c-0.11-0.131-0.189-0.279-0.239-0.446c-0.049-0.169-0.072-0.347-0.066-0.533h3.195C52.896,21.46,52.873,21.189,52.814,20.902
	 M49.689,21.099c0.012-0.164,0.046-0.32,0.108-0.466c0.06-0.146,0.142-0.272,0.247-0.384c0.104-0.109,0.229-0.196,0.376-0.26
	c0.145-0.062,0.309-0.096,0.491-0.096c0.176,0,0.337,0.033,0.482,0.096c0.146,0.063,0.273,0.149,0.38,0.256
	c0.107,0.107,0.192,0.236,0.257,0.384c0.062,0.147,0.1,0.306,0.111,0.47H49.689z"/>
<path style="fill:#1CADD7;" d="M57.005,18.094h-0.701v1.28h-0.636v-0.1c-0.379-0.01-0.694,0.066-0.941,0.231
	c-0.249,0.166-0.458,0.421-0.628,0.769h-0.016v-0.9h-0.661v4.27h0.702v-1.899c0-0.275,0.027-0.519,0.082-0.731
	c0.055-0.212,0.144-0.392,0.265-0.541c0.121-0.148,0.281-0.262,0.479-0.338c0.198-0.078,0.437-0.117,0.718-0.117v-0.023h0.636v2.717
	c0,0.198,0.02,0.357,0.058,0.479s0.098,0.215,0.177,0.28c0.08,0.065,0.186,0.112,0.314,0.138c0.13,0.024,0.285,0.037,0.467,0.037
	h0.537v-0.619h-0.322c-0.11,0-0.2-0.004-0.269-0.014c-0.069-0.008-0.123-0.027-0.161-0.053c-0.038-0.027-0.064-0.066-0.079-0.115
	c-0.014-0.05-0.021-0.117-0.021-0.199v-2.65h0.852v-0.619h-0.852V18.094z"/>
<path style="fill:#1CADD7;" d="M60.061,22.867h-0.017l-1.247-3.492h-0.792l1.692,4.244l-0.289,0.719
	c-0.066,0.125-0.144,0.223-0.23,0.289c-0.089,0.064-0.204,0.098-0.348,0.098c-0.072,0-0.142-0.01-0.211-0.033
	c-0.068-0.021-0.136-0.043-0.202-0.064v0.645c0.077,0.026,0.157,0.047,0.24,0.057c0.082,0.011,0.164,0.017,0.247,0.017
	c0.16,0,0.297-0.021,0.413-0.062c0.115-0.041,0.222-0.107,0.316-0.198c0.098-0.093,0.187-0.208,0.266-0.351
	c0.08-0.144,0.161-0.319,0.244-0.528l1.857-4.831h-0.744L60.061,22.867z"/>
<polygon style="fill:#1CADD7;" points="67.625,22.703 65.766,17.749 64.693,17.749 64.693,23.644 65.436,23.644 65.436,18.74 
	65.453,18.74 67.294,23.644 67.963,23.644 69.804,18.74 69.821,18.74 69.821,23.644 70.564,23.644 70.564,17.749 69.49,17.749 "/>
<path style="fill:#1CADD7;" d="M74.961,23.007c-0.02-0.077-0.029-0.198-0.029-0.362v-2.197c0-0.247-0.047-0.448-0.139-0.602
	c-0.095-0.154-0.219-0.275-0.373-0.36c-0.154-0.086-0.325-0.143-0.516-0.17s-0.382-0.04-0.574-0.04
	c-0.236,0-0.462,0.024-0.677,0.073c-0.216,0.05-0.405,0.132-0.569,0.244c-0.165,0.113-0.297,0.26-0.396,0.441
	s-0.154,0.406-0.166,0.668h0.701c0.018-0.313,0.124-0.525,0.323-0.639c0.198-0.113,0.446-0.169,0.743-0.169
	c0.109,0,0.222,0.008,0.334,0.024c0.113,0.017,0.215,0.049,0.306,0.099c0.09,0.05,0.166,0.122,0.224,0.215
	c0.058,0.095,0.087,0.218,0.087,0.372c0,0.132-0.039,0.232-0.116,0.302c-0.077,0.068-0.182,0.12-0.313,0.156
	c-0.133,0.036-0.285,0.063-0.459,0.083s-0.356,0.048-0.55,0.086c-0.181,0.033-0.359,0.074-0.532,0.124s-0.327,0.122-0.462,0.218
	c-0.135,0.098-0.244,0.223-0.326,0.377c-0.083,0.154-0.125,0.353-0.125,0.596c0,0.213,0.037,0.396,0.112,0.547
	c0.074,0.152,0.176,0.275,0.306,0.373c0.13,0.097,0.279,0.164,0.449,0.207c0.171,0.041,0.354,0.061,0.546,0.061
	c0.297,0,0.574-0.051,0.829-0.152c0.257-0.102,0.481-0.268,0.674-0.5c0,0.232,0.055,0.398,0.16,0.5
	c0.108,0.102,0.252,0.152,0.435,0.152c0.215,0,0.383-0.035,0.504-0.105v-0.547c-0.083,0.027-0.154,0.041-0.214,0.041
	C75.045,23.123,74.979,23.083,74.961,23.007 M74.229,22.157c0,0.099-0.023,0.205-0.072,0.317c-0.052,0.113-0.129,0.219-0.232,0.314
	c-0.104,0.098-0.24,0.176-0.405,0.24c-0.164,0.062-0.362,0.094-0.595,0.094c-0.104,0-0.207-0.01-0.309-0.031
	c-0.103-0.023-0.19-0.06-0.265-0.108c-0.073-0.049-0.135-0.114-0.182-0.194s-0.069-0.178-0.069-0.293
	c0-0.176,0.039-0.315,0.119-0.416c0.08-0.104,0.183-0.181,0.31-0.236c0.127-0.055,0.27-0.096,0.43-0.12s0.316-0.046,0.474-0.066
	c0.157-0.019,0.309-0.043,0.451-0.073c0.142-0.03,0.258-0.078,0.346-0.146V22.157z"/>
<path style="fill:#1CADD7;" d="M79.081,19.711c-0.116-0.137-0.269-0.243-0.455-0.321c-0.188-0.076-0.422-0.114-0.702-0.114
	c-0.634,0-1.097,0.258-1.389,0.776h-0.018v-0.678h-0.661v4.27h0.702v-2.412c0-0.192,0.027-0.369,0.08-0.532
	c0.051-0.163,0.131-0.304,0.235-0.425s0.234-0.215,0.393-0.281c0.157-0.066,0.342-0.1,0.559-0.1c0.269,0,0.48,0.076,0.635,0.232
	c0.155,0.154,0.231,0.362,0.231,0.627v2.891h0.702v-2.809c0-0.23-0.022-0.441-0.068-0.631
	C79.277,20.015,79.195,19.851,79.081,19.711"/>
<path style="fill:#1CADD7;" d="M83.662,23.007c-0.021-0.077-0.03-0.198-0.03-0.362v-2.197c0-0.247-0.046-0.448-0.139-0.602
	c-0.096-0.154-0.219-0.275-0.372-0.359c-0.155-0.087-0.327-0.144-0.518-0.171c-0.189-0.027-0.382-0.04-0.574-0.04
	c-0.236,0-0.462,0.024-0.677,0.073c-0.215,0.05-0.405,0.132-0.57,0.244c-0.165,0.113-0.298,0.26-0.396,0.441
	s-0.154,0.406-0.165,0.668h0.702c0.017-0.313,0.124-0.525,0.322-0.639c0.199-0.113,0.445-0.169,0.743-0.169
	c0.109,0,0.222,0.008,0.335,0.024s0.215,0.049,0.306,0.1c0.091,0.049,0.165,0.121,0.223,0.214c0.058,0.095,0.086,0.218,0.086,0.372
	c0,0.132-0.038,0.232-0.114,0.302c-0.077,0.068-0.182,0.12-0.314,0.156c-0.132,0.036-0.285,0.063-0.458,0.083
	c-0.174,0.02-0.358,0.049-0.55,0.086c-0.182,0.033-0.36,0.074-0.533,0.124s-0.328,0.122-0.463,0.218
	c-0.134,0.098-0.244,0.223-0.326,0.377c-0.083,0.154-0.123,0.353-0.123,0.596c0,0.213,0.037,0.396,0.111,0.547
	c0.074,0.152,0.175,0.275,0.305,0.373c0.13,0.097,0.28,0.164,0.451,0.207c0.171,0.041,0.352,0.061,0.545,0.061
	c0.298,0,0.573-0.051,0.83-0.152c0.256-0.102,0.481-0.268,0.673-0.498c0,0.23,0.054,0.396,0.162,0.498
	c0.107,0.102,0.252,0.152,0.433,0.152c0.216,0,0.384-0.035,0.506-0.105v-0.545c-0.084,0.025-0.155,0.039-0.216,0.039
	C83.745,23.123,83.68,23.083,83.662,23.007 M82.93,22.157c0,0.099-0.024,0.205-0.075,0.317c-0.049,0.113-0.125,0.219-0.23,0.316
	c-0.104,0.096-0.239,0.174-0.405,0.238c-0.164,0.062-0.363,0.094-0.594,0.094c-0.105,0-0.209-0.01-0.311-0.031
	c-0.102-0.023-0.189-0.06-0.263-0.108c-0.075-0.049-0.137-0.114-0.182-0.192c-0.048-0.082-0.071-0.179-0.071-0.295
	c0-0.176,0.04-0.315,0.12-0.416c0.079-0.104,0.182-0.181,0.308-0.236c0.127-0.055,0.271-0.096,0.432-0.12
	c0.158-0.024,0.317-0.046,0.475-0.065s0.307-0.044,0.45-0.074c0.143-0.03,0.259-0.078,0.347-0.146V22.157z"/>
<path style="fill:#1CADD7;" d="M87.579,19.986h-0.008c-0.127-0.238-0.303-0.415-0.528-0.533c-0.227-0.117-0.474-0.177-0.743-0.177
	c-0.369,0-0.681,0.069-0.935,0.211c-0.253,0.14-0.456,0.317-0.609,0.536c-0.154,0.218-0.265,0.459-0.33,0.727
	c-0.066,0.266-0.101,0.527-0.101,0.78c0,0.292,0.041,0.569,0.12,0.83c0.08,0.261,0.199,0.489,0.359,0.685s0.357,0.351,0.595,0.467
	c0.237,0.117,0.515,0.174,0.833,0.174c0.277,0,0.536-0.062,0.781-0.186s0.428-0.32,0.549-0.582h0.017v0.28
	c0,0.236-0.022,0.453-0.07,0.651c-0.046,0.199-0.122,0.367-0.227,0.509c-0.104,0.14-0.236,0.25-0.396,0.329
	c-0.16,0.081-0.355,0.122-0.586,0.122c-0.116,0-0.238-0.015-0.363-0.039c-0.127-0.024-0.244-0.065-0.351-0.119
	c-0.108-0.056-0.198-0.127-0.272-0.215c-0.075-0.087-0.115-0.195-0.121-0.322h-0.701c0.011,0.231,0.072,0.427,0.182,0.587
	c0.109,0.159,0.249,0.289,0.418,0.389c0.167,0.099,0.354,0.17,0.561,0.213c0.207,0.045,0.409,0.067,0.606,0.067
	c0.683,0,1.184-0.174,1.503-0.521c0.318-0.346,0.479-0.87,0.479-1.569v-3.905h-0.66V19.986z M87.477,22.017
	c-0.048,0.197-0.119,0.375-0.219,0.531c-0.1,0.158-0.23,0.285-0.393,0.381c-0.162,0.097-0.358,0.145-0.59,0.145
	c-0.232,0-0.425-0.048-0.579-0.145c-0.153-0.096-0.277-0.223-0.372-0.381c-0.093-0.156-0.158-0.332-0.197-0.523
	c-0.038-0.193-0.059-0.385-0.059-0.578c0-0.203,0.025-0.398,0.071-0.586c0.047-0.188,0.12-0.354,0.222-0.496
	c0.103-0.143,0.233-0.257,0.394-0.342c0.159-0.086,0.353-0.128,0.578-0.128c0.22,0,0.406,0.044,0.561,0.132s0.28,0.205,0.376,0.352
	c0.096,0.146,0.167,0.309,0.211,0.49c0.043,0.182,0.066,0.366,0.066,0.553C87.547,21.621,87.523,21.818,87.477,22.017"/>
<path style="fill:#1CADD7;" d="M92.769,20.902c-0.057-0.285-0.162-0.551-0.314-0.793c-0.149-0.242-0.352-0.441-0.602-0.598
	c-0.251-0.158-0.566-0.236-0.946-0.236c-0.291,0-0.56,0.056-0.805,0.166s-0.457,0.264-0.635,0.461
	c-0.181,0.198-0.319,0.433-0.417,0.703c-0.101,0.27-0.15,0.566-0.15,0.892c0.012,0.325,0.061,0.625,0.146,0.901
	c0.085,0.274,0.214,0.512,0.384,0.709c0.171,0.198,0.382,0.353,0.632,0.463c0.25,0.109,0.546,0.164,0.888,0.164
	c0.484,0,0.886-0.121,1.205-0.362c0.32-0.243,0.525-0.604,0.619-1.083h-0.693c-0.061,0.281-0.187,0.49-0.376,0.628
	c-0.189,0.139-0.433,0.207-0.729,0.207c-0.232,0-0.433-0.039-0.604-0.116c-0.171-0.077-0.31-0.18-0.42-0.309
	c-0.109-0.131-0.189-0.279-0.24-0.446c-0.05-0.169-0.071-0.347-0.065-0.533h3.195C92.851,21.46,92.826,21.189,92.769,20.902
	 M89.644,21.1c0.011-0.165,0.046-0.321,0.108-0.467c0.059-0.146,0.142-0.272,0.247-0.384c0.104-0.109,0.229-0.196,0.376-0.26
	c0.145-0.062,0.309-0.096,0.49-0.096c0.178,0,0.337,0.033,0.483,0.096c0.146,0.063,0.272,0.149,0.38,0.256
	c0.107,0.107,0.192,0.236,0.256,0.384c0.063,0.149,0.101,0.306,0.112,0.471H89.644z"/>
<path style="fill:#1CADD7;" d="M94.681,19.505c-0.248,0.166-0.457,0.422-0.628,0.77h-0.016v-0.9h-0.662v4.27h0.703v-1.898
	c0-0.275,0.026-0.52,0.082-0.732c0.056-0.212,0.144-0.391,0.264-0.541c0.121-0.148,0.28-0.262,0.479-0.338
	c0.199-0.077,0.439-0.115,0.72-0.115v-0.743C95.242,19.264,94.929,19.341,94.681,19.505"/>
<polygon style="fill:#1CADD7;" points="72.354,6.176 72.623,6.176 72.623,4.381 73.298,4.381 73.298,4.154 71.681,4.154 
	71.681,4.381 72.354,4.381 "/>
<polygon style="fill:#1CADD7;" points="74.533,5.854 73.896,4.155 73.527,4.155 73.527,6.177 73.781,6.177 73.781,4.495 
	73.788,4.495 74.42,6.177 74.649,6.177 75.28,4.495 75.287,4.495 75.287,6.177 75.543,6.177 75.543,4.155 75.174,4.155 "/>
</svg>
