<svg xmlns="http://www.w3.org/2000/svg" width="250" height="250" viewBox="0 15 140.202 140.396" enable-background="new 0 0 140.202 140.396"><circle cy="65" r="1.779" stroke="#fff" stroke-miterlimit="10" fill="none"/><circle cx="90" cy="65" r="1.779" stroke="#fff" stroke-miterlimit="10" fill="none"/><g><rect x="57.819" y="45.81" width="24.201" height="44.268" stroke="#fff" stroke-miterlimit="10" fill="none"/><path d="M86.103 95.487c0 1.705-1.395 3.101-3.101 3.101h-26.165c-1.705 0-3.101-1.396-3.101-3.101v-51.578c0-1.706 1.396-3.101 3.101-3.101h26.164c1.706 0 3.101 1.395 3.101 3.101v51.578z" stroke="#fff" stroke-width="2" stroke-miterlimit="10" fill="none"/><circle cx="69.919" cy="94.139" r="1.779" stroke="#fff" stroke-miterlimit="10" fill="none"/><line x1="67.835" y1="43.5" x2="62.835" y2="43.5" stroke="#fff" stroke-miterlimit="10" fill="none"/><path d="M69.52 44.25c.965 0 .967-1.5 0-1.5-.965 0-.967 1.5 0 1.5" fill="#fff"/></g></svg>