<svg version="1.1" id="Layer_1" xmlns="http://www.w3.org/2000/svg" xmlns:xlink="http://www.w3.org/1999/xlink" x="0px" y="0px"
	 width="250px" height="250px" viewBox="0 15 140.202 140.396" style="enable-background:new 0 0 140.202 140.396;"
	 xml:space="preserve">
  <g id="dataentry">
    <circle style="fill:none;stroke:#FFFFFF;stroke-miterlimit:10;" cx="0" cy="65" r="1.779"/>
  </g>
  <g id="dataexit">
    <circle style="fill:none;stroke:#FFFFFF;stroke-miterlimit:10;" cx="90" cy="65" r="1.779"/>
  </g>
  <g id="display">
  	<rect x="57.819" y="45.81" style="fill:none;stroke:#FFFFFF;stroke-miterlimit:10;" width="24.201" height="44.268"/>
  	<path style="fill:none;stroke:#FFFFFF;stroke-width:2;stroke-miterlimit:10;" d="M86.103,95.487c0,1.705-1.395,3.101-3.101,3.101
  		H56.837c-1.705,0-3.101-1.396-3.101-3.101V43.909c0-1.706,1.396-3.101,3.101-3.101h26.164c1.706,0,3.101,1.395,3.101,3.101V95.487z"
  		/>
  	<circle style="fill:none;stroke:#FFFFFF;stroke-miterlimit:10;" cx="69.919" cy="94.139" r="1.779"/>
  	<line style="fill:none;stroke:#FFFFFF;stroke-miterlimit:10;" x1="67.835" y1="43.5" x2="62.835" y2="43.5"/>

    <g id="connected-icon" style="opacity:0">
    	<path style="fill:none;stroke:#F16823;stroke-miterlimit:10;" d="M64.819,66.549c1.291-1.337,3.102-2.169,5.108-2.169
    		c2.205,0,4.175,1.006,5.477,2.583"/>
    	<path style="fill:none;stroke:#F16823;stroke-miterlimit:10;" d="M66.426,68.624c0.828-1.015,2.089-1.662,3.501-1.662
    		c1.403,0,2.657,0.64,3.486,1.644"/>
    	<path style="fill:none;stroke:#F16823;stroke-miterlimit:10;" d="M68.339,70.541c0.321-0.542,0.912-0.906,1.588-0.906
    		c0.656,0,1.232,0.343,1.559,0.86"/>
    	<circle style="fill:none;stroke:#F16823;stroke-miterlimit:10;" cx="69.92" cy="67.289" r="7.552"/>
    </g>
  	<path style="fill:#FFFFFF;" d="M69.52,44.25c0.965,0,0.967-1.5,0-1.5C68.555,42.75,68.553,44.25,69.52,44.25"/>
  </g>
</svg>
