<svg xmlns="http://www.w3.org/2000/svg" width="214.243" height="153.501" viewBox="0 0 214.243 153.501"><rect x="48.189" y="122.274" width="21.795" height="21.795" stroke="#fff" stroke-miterlimit="10" fill="none"/><circle cx="54.664" cy="138.845" r="3.333" stroke="#fff" stroke-miterlimit="10" fill="none"/><circle cx="63.509" cy="138.845" r="3.333" stroke="#fff" stroke-miterlimit="10" fill="none"/><circle cx="54.664" cy="129.999" r="3.333" stroke="#fff" stroke-miterlimit="10" fill="none"/><circle cx="63.509" cy="129.999" r="3.333" stroke="#fff" stroke-miterlimit="10" fill="none"/><path d="M55.337 124.932c.965 0 .967-1.5 0-1.5-.965 0-.968 1.5 0 1.5" fill="#fff"/><path d="M57.837 124.932c.965 0 .967-1.5 0-1.5-.965 0-.968 1.5 0 1.5" fill="#fff"/><path d="M60.337 124.932c.965 0 .967-1.5 0-1.5-.965 0-.968 1.5 0 1.5" fill="#fff"/><path d="M62.837 124.932c.965 0 .967-1.5 0-1.5-.965 0-.968 1.5 0 1.5" fill="#fff"/><polyline points="49.343,122.274 49.729,120.607 68.446,120.607 68.83,122.274" stroke="#fff" stroke-miterlimit="10" fill="none"/><rect x="69.983" y="122.274" width="48.882" height="21.795" stroke="#fff" stroke-miterlimit="10" fill="none"/><path d="M92.364 138.698c0 1.062-.868 1.928-1.928 1.928h-10.927c-1.061 0-1.929-.867-1.929-1.928v-10.927c0-1.061.868-1.929 1.929-1.929h10.928c1.06 0 1.928.868 1.928 1.929v10.927z" stroke="#fff" stroke-miterlimit="10" fill="none"/><path d="M109.72 138.698c0 1.062-.868 1.928-1.929 1.928h-10.928c-1.06 0-1.928-.867-1.928-1.928v-10.927c0-1.061.868-1.929 1.928-1.929h10.928c1.061 0 1.929.868 1.929 1.929v10.927z" stroke="#fff" stroke-miterlimit="10" fill="none"/><rect x="118.865" y="122.274" width="23.314" height="21.795" stroke="#fff" stroke-miterlimit="10" fill="none"/><line x1="142.18" y1="125.843" x2="118.866" y2="125.843" stroke="#fff" stroke-miterlimit="10" fill="none"/><rect x="149.03" y="142.787" width="48.452" height="2.565" stroke="#fff" stroke-miterlimit="10" fill="none"/><polyline points="205.146,21.015 205.146,9.368 10.021,9.368 10.021,97.039 48.189,97.039 48.189,144.069 52.536,144.069 91.199,144.069" stroke="#fff" stroke-width="2" stroke-miterlimit="10" fill="none"/><line x1="205.146" y1="90.061" x2="205.146" y2="52.106" stroke="#fff" stroke-width="2" stroke-miterlimit="10" fill="none"/><polyline points="197.746,144.069 205.523,144.069 205.523,136.503 205.395,129.678 205.395,119.767 179.929,119.767" stroke="#fff" stroke-width="2" stroke-miterlimit="10" fill="none"/><path d="M180.872 117.125l.005-.5" stroke="#fff" stroke-linecap="round" stroke-miterlimit="10" fill="none"/><path d="M181.146 113.471c1.659-10.929 10.646-19.452 21.791-20.403" stroke="#fff" stroke-linecap="round" stroke-miterlimit="10" stroke-dasharray="1.055,3.164" fill="none"/><path d="M204.519 92.984l.5-.005" stroke="#fff" stroke-linecap="round" stroke-miterlimit="10" fill="none"/><line x1="87.313" y1="144.069" x2="149.03" y2="144.069" stroke="#fff" stroke-width="2" stroke-miterlimit="10" fill="none"/><polyline points="123.738,21.016 98.271,21.016 98.271,15.602" stroke="#fff" stroke-miterlimit="10" fill="none"/><path d="M122.795 23.657l-.005.5" stroke="#fff" stroke-linecap="round" stroke-miterlimit="10" fill="none"/><path d="M122.521 27.311c-1.659 10.929-10.646 19.452-21.791 20.403" stroke="#fff" stroke-linecap="round" stroke-miterlimit="10" stroke-dasharray="1.055,3.164" fill="none"/><path d="M99.148 47.798l-.5.005" stroke="#fff" stroke-linecap="round" stroke-miterlimit="10" fill="none"/><polyline points="48.189,9.236 48.189,25.083 22.723,25.083" stroke="#fff" stroke-miterlimit="10" fill="none"/><line x1="48.189" y1="97.039" x2="48.189" y2="53.992" stroke="#fff" stroke-miterlimit="10" fill="none"/><path d="M23.666 27.724l.005.5" stroke="#fff" stroke-linecap="round" stroke-miterlimit="10" fill="none"/><path d="M23.94 31.378c1.66 10.93 10.646 19.453 21.791 20.403" stroke="#fff" stroke-linecap="round" stroke-miterlimit="10" stroke-dasharray="1.055,3.164" fill="none"/><path d="M47.312 51.865l.5.005" stroke="#fff" stroke-linecap="round" stroke-miterlimit="10" fill="none"/><rect x="203.735" y="21.632" width="2.565" height="30.294" stroke="#fff" stroke-miterlimit="10" fill="none"/><line x1="47.812" y1="85.818" x2="10.021" y2="85.818" stroke="#fff" stroke-miterlimit="10" fill="none"/><rect x="13.312" y="83.829" width="32.583" height="3.979" stroke="#fff" stroke-miterlimit="10" fill="none"/><line x1="98.271" y1="16.153" x2="98.271" y2="9.369" stroke="#fff" stroke-miterlimit="10" fill="none"/><polyline points="205.146,70.022 98.271,70.022 98.271,50.632" stroke="#fff" stroke-miterlimit="10" fill="none"/><rect x="149.03" y="142.787" width="48.452" height="2.565" stroke="#fff" stroke-miterlimit="10" fill="none"/><polyline points="205.146,21.015 205.146,9.368 10.021,9.368 10.021,97.039 48.189,97.039 48.189,144.069 52.536,144.069 91.199,144.069" stroke="#fff" stroke-width="2" stroke-miterlimit="10" fill="none"/><line x1="205.146" y1="90.061" x2="205.146" y2="52.106" stroke="#fff" stroke-width="2" stroke-miterlimit="10" fill="none"/><polyline points="197.746,144.069 205.523,144.069 205.523,136.503 205.395,129.678 205.395,119.767 179.929,119.767" stroke="#fff" stroke-width="2" stroke-miterlimit="10" fill="none"/><path d="M180.872 117.125l.005-.5" stroke="#fff" stroke-width="2" stroke-linecap="round" stroke-miterlimit="10" fill="none"/><path d="M181.146 113.471c1.659-10.929 10.646-19.452 21.791-20.403" stroke="#fff" stroke-width="2" stroke-linecap="round" stroke-miterlimit="10" stroke-dasharray="1.055,3.164" fill="none"/><path d="M204.519 92.984l.5-.005" stroke="#fff" stroke-width="2" stroke-linecap="round" stroke-miterlimit="10" fill="none"/><line x1="87.313" y1="144.069" x2="149.03" y2="144.069" stroke="#fff" stroke-width="2" stroke-miterlimit="10" fill="none"/><polyline points="123.738,21.016 98.271,21.016 98.271,15.602" stroke="#fff" stroke-miterlimit="10" fill="none"/><path d="M122.795 23.657l-.005.5" stroke="#fff" stroke-width="2" stroke-linecap="round" stroke-miterlimit="10" fill="none"/><path d="M122.521 27.311c-1.659 10.929-10.646 19.452-21.791 20.403" stroke="#fff" stroke-width="2" stroke-linecap="round" stroke-miterlimit="10" stroke-dasharray="1.055,3.164" fill="none"/><path d="M99.148 47.798l-.5.005" stroke="#fff" stroke-width="2" stroke-linecap="round" stroke-miterlimit="10" fill="none"/><polyline points="48.189,9.236 48.189,25.083 22.723,25.083" stroke="#fff" stroke-miterlimit="10" fill="none"/><line x1="48.189" y1="97.039" x2="48.189" y2="53.992" stroke="#fff" stroke-miterlimit="10" fill="none"/><path d="M23.666 27.724l.005.5" stroke="#fff" stroke-width="2" stroke-linecap="round" stroke-miterlimit="10" fill="none"/><path d="M23.94 31.378c1.66 10.93 10.646 19.453 21.791 20.403" stroke="#fff" stroke-width="2" stroke-linecap="round" stroke-miterlimit="10" stroke-dasharray="1.055,3.164" fill="none"/><path d="M47.312 51.865l.5.005" stroke="#fff" stroke-width="2" stroke-linecap="round" stroke-miterlimit="10" fill="none"/><rect x="203.735" y="21.632" width="2.565" height="30.294" stroke="#fff" stroke-miterlimit="10" fill="none"/><line x1="47.812" y1="85.818" x2="10.021" y2="85.818" stroke="#fff" stroke-miterlimit="10" fill="none"/><rect x="13.312" y="83.829" width="32.583" height="3.979" stroke="#fff" stroke-miterlimit="10" fill="none"/><line x1="98.271" y1="16.153" x2="98.271" y2="9.369" stroke="#fff" stroke-miterlimit="10" fill="none"/><polyline points="205.146,70.022 98.271,70.022 98.271,50.632" stroke="#fff" stroke-miterlimit="10" fill="none"/><path d="M129.788 80.91c0 11.944-9.684 21.627-21.627 21.627-11.944 0-21.628-9.683-21.628-21.627s9.684-21.627 21.628-21.627c11.943 0 21.627 9.683 21.627 21.627" fill="#1CADD7"/><circle cx="108.161" cy="80.91" r="21.627" stroke="#FFCB2E" stroke-width="2" stroke-miterlimit="10" fill="none"/><line y1="97.039" x2="5.464" y2="97.039" stroke="#FFCB2E" stroke-width="2" stroke-miterlimit="10" fill="none"/><line x1="2.732" y1="9.236" x2="2.732" y2="97.039" stroke="#FFCB2E" stroke-width="2" stroke-miterlimit="10" fill="none"/><line x1="5.464" y1="9.236" y2="9.236" stroke="#FFCB2E" stroke-width="2" stroke-miterlimit="10" fill="none"/><line x1="205.33" y1="5.464" x2="205.33" stroke="#FFCB2E" stroke-width="2" stroke-miterlimit="10" fill="none"/><line x1="10.021" y1="2.732" x2="205.146" y2="2.732" stroke="#FFCB2E" stroke-width="2" stroke-miterlimit="10" fill="none"/><line x1="10.021" x2="10.021" y2="5.464" stroke="#FFCB2E" stroke-width="2" stroke-miterlimit="10" fill="none"/><line x1="208.779" y1="89.808" x2="214.243" y2="89.808" stroke="#FFCB2E" stroke-width="2" stroke-miterlimit="10" fill="none"/><line x1="211.512" y1="9.236" x2="211.512" y2="89.808" stroke="#FFCB2E" stroke-width="2" stroke-miterlimit="10" fill="none"/><line x1="214.243" y1="9.236" x2="208.779" y2="9.236" stroke="#FFCB2E" stroke-width="2" stroke-miterlimit="10" fill="none"/><polygon points="103.87,91.859 94.439,82.436 97.653,79.22 103.87,85.437 118.672,70.632 121.882,73.847" fill="#FFCB2E"/><line x1="205.33" y1="153.5" x2="205.33" y2="148.036" stroke="#FFCB2E" stroke-width="2" stroke-miterlimit="10" fill="none"/><line x1="48.106" y1="150.768" x2="205.146" y2="150.768" stroke="#FFCB2E" stroke-width="2" stroke-miterlimit="10" fill="none"/><line x1="48.106" y1="148.037" x2="48.106" y2="153.501" stroke="#FFCB2E" stroke-width="2" stroke-miterlimit="10" fill="none"/></svg>