<svg xmlns="http://www.w3.org/2000/svg" width="238.49" height="87.314" viewBox="0 0 238.49 87.314"><rect x="58.256" y="31.222" width="25.262" height="46.21" stroke="#fff" stroke-miterlimit="10" fill="none"/><path d="M87.78 83.078c0 1.779-1.456 3.236-3.237 3.236h-27.312c-1.78 0-3.237-1.457-3.237-3.236v-53.841c0-1.78 1.457-3.237 3.237-3.237h27.312c1.781 0 3.237 1.457 3.237 3.237v53.841z" stroke="#fff" stroke-width="2" stroke-miterlimit="10" fill="none"/><circle cx="70.887" cy="81.67" r="1.858" stroke="#fff" stroke-miterlimit="10" fill="none"/><line x1="68.712" y1="28.81" x2="63.493" y2="28.81" stroke="#fff" stroke-miterlimit="10" fill="none"/><path d="M70.471 29.56c.965 0 .967-1.5 0-1.5-.966 0-.968 1.5 0 1.5" fill="#fff"/><rect x="145.334" y="31.222" width="25.263" height="46.21" stroke="#fff" stroke-miterlimit="10" fill="none"/><path d="M174.857 83.078c0 1.779-1.456 3.236-3.236 3.236h-27.312c-1.78 0-3.237-1.457-3.237-3.236v-53.841c0-1.78 1.457-3.237 3.237-3.237h27.312c1.78 0 3.236 1.457 3.236 3.237v53.841z" stroke="#fff" stroke-width="2" stroke-miterlimit="10" fill="none"/><circle cx="157.965" cy="81.67" r="1.857" stroke="#fff" stroke-miterlimit="10" fill="none"/><line x1="155.789" y1="28.81" x2="150.57" y2="28.81" stroke="#fff" stroke-miterlimit="10" fill="none"/><path d="M157.548 29.56c.965 0 .967-1.5 0-1.5-.965 0-.967 1.5 0 1.5" fill="#fff"/><rect x="188.872" y="6.222" width="25.263" height="46.21" stroke="#fff" stroke-miterlimit="10" fill="none"/><path d="M218.396 58.078c0 1.78-1.456 3.237-3.237 3.237h-27.312c-1.78 0-3.237-1.457-3.237-3.237v-53.841c0-1.78 1.457-3.237 3.237-3.237h27.312c1.781 0 3.237 1.457 3.237 3.237v53.841z" stroke="#fff" stroke-width="2" stroke-linecap="round" stroke-miterlimit="10" stroke-dasharray="1,4" fill="none"/><circle cx="201.503" cy="56.67" r="1.858" stroke="#fff" stroke-miterlimit="10" fill="none"/><line x1="199.328" y1="3.81" x2="194.108" y2="3.81" stroke="#fff" stroke-miterlimit="10" fill="none"/><path d="M201.086 4.56c.966 0 .968-1.5 0-1.5-.965 0-.967 1.5 0 1.5" fill="#fff"/><rect x="14.718" y="31.222" width="25.262" height="46.21" stroke="#fff" stroke-miterlimit="10" fill="none"/><path d="M44.242 83.078c0 1.779-1.456 3.236-3.237 3.236h-27.312c-1.78 0-3.237-1.457-3.237-3.236v-53.841c0-1.78 1.457-3.237 3.237-3.237h27.312c1.781 0 3.237 1.457 3.237 3.237v53.841z" stroke="#fff" stroke-width="2" stroke-miterlimit="10" fill="none"/><circle cx="27.349" cy="81.67" r="1.857" stroke="#fff" stroke-miterlimit="10" fill="none"/><line x1="25.173" y1="28.81" x2="19.954" y2="28.81" stroke="#fff" stroke-miterlimit="10" fill="none"/><path d="M26.932 29.56c.965 0 .967-1.5 0-1.5-.965 0-.967 1.5 0 1.5" fill="#fff"/><rect x="101.795" y="31.222" width="25.262" height="46.21" stroke="#fff" stroke-miterlimit="10" fill="none"/><path d="M131.319 83.078c0 1.779-1.456 3.236-3.237 3.236h-27.312c-1.78 0-3.237-1.457-3.237-3.236v-53.841c0-1.78 1.457-3.237 3.237-3.237h27.312c1.781 0 3.237 1.457 3.237 3.237v53.841z" stroke="#fff" stroke-width="2" stroke-miterlimit="10" fill="none"/><circle cx="114.426" cy="81.67" r="1.857" stroke="#fff" stroke-miterlimit="10" fill="none"/><line x1="112.25" y1="28.81" x2="107.031" y2="28.81" stroke="#fff" stroke-miterlimit="10" fill="none"/><path d="M114.01 29.56c.965 0 .967-1.5 0-1.5-.966 0-.968 1.5 0 1.5" fill="#fff"/><path d="M36.156 52.895c0 4.779-3.874 8.654-8.654 8.654-4.779 0-8.653-3.875-8.653-8.654s3.874-8.654 8.653-8.654c4.78 0 8.654 3.875 8.654 8.654" stroke="#2D3943" stroke-width="2" stroke-miterlimit="10" fill="none"/><polyline points="31.927,50.732 26.119,56.54 23.078,53.502 24.114,52.464 26.119,54.469 30.892,49.696" fill="#2D3943"/><line y1="86.314" x2="238.49" y2="86.314" stroke="#fff" stroke-width="2" stroke-miterlimit="10" fill="none"/><path d="M79.656 52.895c0 4.779-3.874 8.654-8.654 8.654-4.779 0-8.653-3.875-8.653-8.654s3.874-8.654 8.653-8.654c4.78 0 8.654 3.875 8.654 8.654" stroke="#2D3943" stroke-width="2" stroke-miterlimit="10" fill="none"/><polyline points="75.427,50.732 69.619,56.54 66.578,53.502 67.614,52.464 69.619,54.469 74.392,49.696" fill="#2D3943"/><path d="M122.656 52.895c0 4.779-3.874 8.654-8.654 8.654-4.779 0-8.652-3.875-8.652-8.654s3.873-8.654 8.652-8.654c4.78 0 8.654 3.875 8.654 8.654" stroke="#2D3943" stroke-width="2" stroke-miterlimit="10" fill="none"/><polyline points="118.427,50.732 112.619,56.54 109.578,53.502 110.614,52.464 112.619,54.469 117.392,49.696" fill="#2D3943"/><path d="M166.156 52.895c0 4.779-3.874 8.654-8.654 8.654-4.778 0-8.652-3.875-8.652-8.654s3.874-8.654 8.652-8.654c4.78 0 8.654 3.875 8.654 8.654" stroke="#2D3943" stroke-width="2" stroke-miterlimit="10" fill="none"/><polyline points="161.927,50.732 156.119,56.54 153.078,53.502 154.114,52.464 156.119,54.469 160.892,49.696" fill="#2D3943"/></svg>